<?xml version="1.0" standalone="no"?><!DOCTYPE svg PUBLIC "-//W3C//DTD SVG 1.1//EN" 
"http://www.w3.org/Graphics/SVG/1.1/DTD/svg11.dtd"><svg version="1.1" xmlns="http://www.w3.org/2000/svg"><line x1="222.0" y1="33.0" x2="222.0" y2="80.0" style="stroke:rgb(255,0,0);stroke-width=2" /><line x1="222.0" y1="80.0" x2="222.0" y2="80.0" style="stroke:rgb(255,0,0);stroke-width=2" /><line x1="222.0" y1="80.0" x2="222.0" y2="95.0" style="stroke:rgb(255,0,0);stroke-width=2" /><line x1="510.0" y1="33.0" x2="510.0" y2="80.0" style="stroke:rgb(255,0,0);stroke-width=2" /><line x1="510.0" y1="80.0" x2="510.0" y2="80.0" style="stroke:rgb(255,0,0);stroke-width=2" /><line x1="510.0" y1="80.0" x2="510.0" y2="95.0" style="stroke:rgb(255,0,0);stroke-width=2" /><line x1="582.0" y1="33.0" x2="582.0" y2="80.0" style="stroke:rgb(255,0,0);stroke-width=2" /><line x1="582.0" y1="80.0" x2="582.0" y2="80.0" style="stroke:rgb(255,0,0);stroke-width=2" /><line x1="582.0" y1="80.0" x2="582.0" y2="95.0" style="stroke:rgb(255,0,0);stroke-width=2" /><line x1="646.0" y1="33.0" x2="646.0" y2="80.0" style="stroke:rgb(255,0,0);stroke-width=2" /><line x1="646.0" y1="80.0" x2="646.0" y2="80.0" style="stroke:rgb(255,0,0);stroke-width=2" /><line x1="646.0" y1="80.0" x2="646.0" y2="95.0" style="stroke:rgb(255,0,0);stroke-width=2" /><line x1="736.0" y1="33.0" x2="736.0" y2="80.0" style="stroke:rgb(255,0,0);stroke-width=2" /><line x1="736.0" y1="80.0" x2="736.0" y2="80.0" style="stroke:rgb(255,0,0);stroke-width=2" /><line x1="736.0" y1="80.0" x2="736.0" y2="95.0" style="stroke:rgb(255,0,0);stroke-width=2" /><line x1="852.0" y1="33.0" x2="852.0" y2="80.0" style="stroke:rgb(255,0,0);stroke-width=2" /><line x1="852.0" y1="80.0" x2="852.0" y2="80.0" style="stroke:rgb(255,0,0);stroke-width=2" /><line x1="852.0" y1="80.0" x2="852.0" y2="95.0" style="stroke:rgb(255,0,0);stroke-width=2" /><line x1="222.0" y1="113.0" x2="222.0" y2="160.0" style="stroke:rgb(255,0,0);stroke-width=2" /><line x1="222.0" y1="160.0" x2="214.0" y2="160.0" style="stroke:rgb(255,0,0);stroke-width=2" /><line x1="214.0" y1="160.0" x2="214.0" y2="175.0" style="stroke:rgb(255,0,0);stroke-width=2" /><line x1="510.0" y1="113.0" x2="510.0" y2="160.0" style="stroke:rgb(255,0,0);stroke-width=2" /><line x1="510.0" y1="160.0" x2="214.0" y2="160.0" style="stroke:rgb(255,0,0);stroke-width=2" /><line x1="214.0" y1="160.0" x2="214.0" y2="175.0" style="stroke:rgb(255,0,0);stroke-width=2" /><line x1="736.0" y1="113.0" x2="736.0" y2="160.0" style="stroke:rgb(255,0,0);stroke-width=2" /><line x1="736.0" y1="160.0" x2="726.0" y2="160.0" style="stroke:rgb(255,0,0);stroke-width=2" /><line x1="726.0" y1="160.0" x2="726.0" y2="175.0" style="stroke:rgb(255,0,0);stroke-width=2" /><line x1="852.0" y1="113.0" x2="852.0" y2="160.0" style="stroke:rgb(255,0,0);stroke-width=2" /><line x1="852.0" y1="160.0" x2="726.0" y2="160.0" style="stroke:rgb(255,0,0);stroke-width=2" /><line x1="726.0" y1="160.0" x2="726.0" y2="175.0" style="stroke:rgb(255,0,0);stroke-width=2" /><line x1="214.0" y1="193.0" x2="214.0" y2="240.0" style="stroke:rgb(255,0,0);stroke-width=2" /><line x1="214.0" y1="240.0" x2="204.0" y2="240.0" style="stroke:rgb(255,0,0);stroke-width=2" /><line x1="204.0" y1="240.0" x2="204.0" y2="255.0" style="stroke:rgb(255,0,0);stroke-width=2" /><line x1="582.0" y1="113.0" x2="582.0" y2="240.0" style="stroke:rgb(255,0,0);stroke-width=2" /><line x1="582.0" y1="240.0" x2="204.0" y2="240.0" style="stroke:rgb(255,0,0);stroke-width=2" /><line x1="204.0" y1="240.0" x2="204.0" y2="255.0" style="stroke:rgb(255,0,0);stroke-width=2" /><line x1="718.0" y1="33.0" x2="718.0" y2="240.0" style="stroke:rgb(255,0,0);stroke-width=2" /><line x1="718.0" y1="240.0" x2="718.0" y2="240.0" style="stroke:rgb(255,0,0);stroke-width=2" /><line x1="718.0" y1="240.0" x2="718.0" y2="255.0" style="stroke:rgb(255,0,0);stroke-width=2" /><line x1="204.0" y1="273.0" x2="204.0" y2="320.0" style="stroke:rgb(255,0,0);stroke-width=2" /><line x1="204.0" y1="320.0" x2="196.0" y2="320.0" style="stroke:rgb(255,0,0);stroke-width=2" /><line x1="196.0" y1="320.0" x2="196.0" y2="335.0" style="stroke:rgb(255,0,0);stroke-width=2" /><line x1="646.0" y1="113.0" x2="646.0" y2="320.0" style="stroke:rgb(255,0,0);stroke-width=2" /><line x1="646.0" y1="320.0" x2="196.0" y2="320.0" style="stroke:rgb(255,0,0);stroke-width=2" /><line x1="196.0" y1="320.0" x2="196.0" y2="335.0" style="stroke:rgb(255,0,0);stroke-width=2" /><line x1="718.0" y1="273.0" x2="718.0" y2="320.0" style="stroke:rgb(255,0,0);stroke-width=2" /><line x1="718.0" y1="320.0" x2="196.0" y2="320.0" style="stroke:rgb(255,0,0);stroke-width=2" /><line x1="196.0" y1="320.0" x2="196.0" y2="335.0" style="stroke:rgb(255,0,0);stroke-width=2" /><line x1="114.0" y1="33.0" x2="114.0" y2="400.0" style="stroke:rgb(255,0,0);stroke-width=2" /><line x1="114.0" y1="400.0" x2="114.0" y2="400.0" style="stroke:rgb(255,0,0);stroke-width=2" /><line x1="114.0" y1="400.0" x2="114.0" y2="415.0" style="stroke:rgb(255,0,0);stroke-width=2" /><line x1="196.0" y1="353.0" x2="196.0" y2="400.0" style="stroke:rgb(255,0,0);stroke-width=2" /><line x1="196.0" y1="400.0" x2="114.0" y2="400.0" style="stroke:rgb(255,0,0);stroke-width=2" /><line x1="114.0" y1="400.0" x2="114.0" y2="415.0" style="stroke:rgb(255,0,0);stroke-width=2" /><line x1="24.0" y1="33.0" x2="24.0" y2="480.0" style="stroke:rgb(255,0,0);stroke-width=2" /><line x1="24.0" y1="480.0" x2="24.0" y2="480.0" style="stroke:rgb(255,0,0);stroke-width=2" /><line x1="24.0" y1="480.0" x2="24.0" y2="495.0" style="stroke:rgb(255,0,0);stroke-width=2" /><line x1="114.0" y1="433.0" x2="114.0" y2="480.0" style="stroke:rgb(255,0,0);stroke-width=2" /><line x1="114.0" y1="480.0" x2="24.0" y2="480.0" style="stroke:rgb(255,0,0);stroke-width=2" /><line x1="24.0" y1="480.0" x2="24.0" y2="495.0" style="stroke:rgb(255,0,0);stroke-width=2" /><text xml:space="preserve" x="20" y="30" font-size="18px" font-family="Inconsolata, monospace">\w: World \t: Time [[['Seek                           w]      t]     'Tilman '['Lastdec     'Pi]]</text><text xml:space="preserve" x="20" y="110" font-size="18px" font-family="Inconsolata, monospace">                      (((Bool Indiv *) Time) World)   World   Time   Indiv     (Int Real)   Real</text><text xml:space="preserve" x="20" y="190" font-size="18px" font-family="Inconsolata, monospace">                     ((Bool Indiv *) Time)                                    Int</text><text xml:space="preserve" x="20" y="270" font-size="18px" font-family="Inconsolata, monospace">                    (Bool Indiv *)                                           *</text><text xml:space="preserve" x="20" y="350" font-size="18px" font-family="Inconsolata, monospace">                   Bool</text><text xml:space="preserve" x="20" y="430" font-size="18px" font-family="Inconsolata, monospace">          (Bool Time)</text><text xml:space="preserve" x="20" y="510" font-size="18px" font-family="Inconsolata, monospace">((Bool Time) World)</text></svg>